P3
4 3
9
0
0
0
7
9
5
0
0
0
1
9
6
8
3
2
0
0
0
7
2
3
0
0
0
0
0
0
0
0
0
0
0
0
0
0
0
